<svg width="17" height="16" viewBox="0 0 17 16" fill="none" xmlns="http://www.w3.org/2000/svg">
<g clip-path="url(#clip0_129_524)">
<path d="M8.22018 16C3.68739 16 0 12.4114 0 8C0 3.58862 3.68739 0 8.22018 0C12.753 0 16.4404 3.58862 16.4404 8C16.4404 12.4114 12.753 16 8.22018 16ZM8.22018 1C4.25396 1 1.02752 4.14001 1.02752 8C1.02752 11.86 4.25396 15 8.22018 15C12.1864 15 15.4128 11.86 15.4128 8C15.4128 4.14001 12.1864 1 8.22018 1Z" fill="#4E7693"/>
<path d="M5.67745 10.9744C5.54588 10.9744 5.4143 10.9258 5.31433 10.8278C5.11365 10.6324 5.11365 10.3158 5.31433 10.1205L10.4005 5.17041C10.6013 4.9751 10.9267 4.9751 11.1274 5.17041C11.3281 5.36572 11.3281 5.68237 11.1274 5.87781L6.04108 10.8278C5.93973 10.9258 5.80828 10.9744 5.67745 10.9744Z" fill="#4E7693"/>
<path d="M10.7629 10.9747C10.6314 10.9747 10.4999 10.9261 10.3999 10.8281L5.3137 5.87875C5.11288 5.68344 5.11288 5.36679 5.3137 5.17148C5.51438 4.97604 5.83975 4.97604 6.04044 5.17148L11.1266 10.1214C11.3274 10.3167 11.3274 10.6334 11.1266 10.8287C11.026 10.9261 10.8945 10.9747 10.7629 10.9747Z" fill="#4E7693"/>
</g>
<defs>
<clipPath id="clip0_129_524">
<rect width="16.4404" height="16" fill="white"/>
</clipPath>
</defs>
</svg>
